<svg xmlns="http://www.w3.org/2000/svg" viewBox="0 0 86 89.91"><defs><style>.cls-1{fill:#231f20;}.cls-2{fill:#ec2229;}</style></defs><title>DI_logo</title><g id="Layer_2" data-name="Layer 2"><g id="site_design" data-name="site design"><rect class="cls-1" x="68.4" y="24.92" width="17.6" height="64.99"/><polygon class="cls-2" points="68.4 3.84 68.4 16.09 86 16.09 68.4 3.84"/><path class="cls-1" d="M54.08,0H36.47V30.63c-2.87-3.08-7.89-7-15-7C9.77,23.67,0,33.88,0,43.87V61.69L19.88,75.34a9.18,9.18,0,0,1-2.4-6.19v-23A9.25,9.25,0,0,1,26.71,37H27a9.26,9.26,0,0,1,9.23,9.23v23A9.26,9.26,0,0,1,27,78.38h-.33a9.35,9.35,0,0,1-3.31-.61L41.08,89.91h13Z"/></g></g></svg>